<svg width="512" height="512" viewBox="0 0 512 512" fill="none" xmlns="http://www.w3.org/2000/svg">
<path d="M73.952 278.248C73.952 282.541 75.24 285.853 77.816 288.184C80.5147 290.515 84.0107 291.68 88.304 291.68C91.7387 291.68 95.1733 291.005 98.608 289.656V311C95.5413 311.981 92.2907 312.779 88.856 313.392C85.4213 314.128 81.9867 314.496 78.552 314.496C74.6267 314.496 70.8853 314.005 67.328 313.024C63.7707 312.043 60.5813 310.387 57.76 308.056C54.9387 305.603 52.6693 302.413 50.952 298.488C49.3573 294.44 48.56 289.472 48.56 283.584V242.368H35.496V225.256L48.56 219.736V199.312H73.952V219.736H98.608V242.368H73.952V278.248ZM161.502 217.16C167.512 217.16 173.094 218.448 178.246 221.024C183.52 223.477 188.059 226.912 191.862 231.328C195.664 235.621 198.608 240.712 200.694 246.6C202.902 252.365 204.006 258.56 204.006 265.184V311H179.166V294.256C179.166 289.595 179.166 284.811 179.166 279.904C179.288 274.875 179.35 270.581 179.35 267.024C179.35 263.589 178.798 260.216 177.694 256.904C176.59 253.592 175.056 250.709 173.094 248.256C171.131 245.68 168.8 243.656 166.102 242.184C163.526 240.589 160.766 239.792 157.822 239.792C155 239.792 152.302 240.344 149.725 241.448C147.15 242.429 144.88 243.963 142.918 246.048C140.955 248.011 139.36 250.525 138.134 253.592C137.03 256.659 136.478 260.277 136.478 264.448V311H110.902V176.68H136.478V226.728C139.667 223.661 143.286 221.331 147.334 219.736C151.504 218.019 156.227 217.16 161.502 217.16ZM240.499 232.432C241.726 230.469 243.137 228.629 244.731 226.912C246.326 225.072 248.227 223.477 250.435 222.128C252.643 220.656 255.158 219.491 257.979 218.632C260.801 217.773 263.99 217.344 267.547 217.344C271.718 217.344 276.563 218.08 282.083 219.552L279.691 242.184C278.342 241.939 276.993 241.632 275.643 241.264C274.539 241.019 273.313 240.835 271.963 240.712C270.614 240.467 269.387 240.344 268.283 240.344C264.358 240.344 260.678 240.896 257.243 242C253.931 243.104 251.049 244.637 248.595 246.6C246.142 248.563 244.179 250.955 242.707 253.776C241.235 256.475 240.499 259.419 240.499 262.608V311H215.107V219.736H238.107L240.499 232.432ZM383.303 176.68V311H361.591L357.911 303.088C355.09 306.032 351.165 308.485 346.135 310.448C341.229 312.288 336.077 313.208 330.679 313.208C324.178 313.208 318.167 311.981 312.647 309.528C307.127 306.952 302.343 303.517 298.295 299.224C294.37 294.808 291.242 289.717 288.911 283.952C286.703 278.064 285.599 271.808 285.599 265.184C285.599 258.56 286.703 252.365 288.911 246.6C291.242 240.712 294.37 235.621 298.295 231.328C302.343 226.912 307.127 223.477 312.647 221.024C318.167 218.448 324.178 217.16 330.679 217.16C336.445 217.16 341.535 217.835 345.951 219.184C350.49 220.533 354.477 222.803 357.911 225.992V176.68H383.303ZM357.911 265.552C357.911 260.768 357.298 256.781 356.071 253.592C354.845 250.28 353.127 247.643 350.919 245.68C348.711 243.595 346.135 242.123 343.191 241.264C340.37 240.283 337.303 239.792 333.991 239.792C330.679 239.792 327.551 240.467 324.607 241.816C321.786 243.165 319.271 245.005 317.063 247.336C314.978 249.544 313.322 252.243 312.095 255.432C310.869 258.499 310.255 261.749 310.255 265.184C310.255 268.741 310.869 272.053 312.095 275.12C313.322 278.187 314.978 280.885 317.063 283.216C319.271 285.424 321.786 287.203 324.607 288.552C327.551 289.901 330.679 290.576 333.991 290.576C340.615 290.576 346.197 288.552 350.735 284.504C355.397 280.333 357.789 274.016 357.911 265.552ZM414.371 284.504C418.296 284.504 421.608 285.853 424.307 288.552C427.128 291.251 428.539 294.563 428.539 298.488C428.539 302.413 427.128 305.725 424.307 308.424C421.608 311.123 418.296 312.472 414.371 312.472C410.445 312.472 407.133 311.123 404.435 308.424C401.736 305.725 400.387 302.413 400.387 298.488C400.387 294.563 401.736 291.251 404.435 288.552C407.133 285.853 410.445 284.504 414.371 284.504Z" fill="#1647FB"/>
</svg>