<svg width="500" height="554" viewBox="0 0 500 554" fill="none" xmlns="http://www.w3.org/2000/svg">
<rect width="500" height="500" fill="#1647FB"/>
<path d="M55.592 457.608C55.592 459.101 56.04 460.253 56.936 461.064C57.8747 461.875 59.0907 462.28 60.584 462.28C61.7787 462.28 62.9733 462.045 64.168 461.576V469C63.1013 469.341 61.9707 469.619 60.776 469.832C59.5813 470.088 58.3867 470.216 57.192 470.216C55.8267 470.216 54.5253 470.045 53.288 469.704C52.0507 469.363 50.9413 468.787 49.96 467.976C48.9787 467.123 48.1893 466.013 47.592 464.648C47.0373 463.24 46.76 461.512 46.76 459.464V445.128H42.216V439.176L46.76 437.256V430.152H55.592V437.256H64.168V445.128H55.592V457.608ZM86.044 436.36C88.1347 436.36 90.076 436.808 91.868 437.704C93.7027 438.557 95.2813 439.752 96.604 441.288C97.9267 442.781 98.9507 444.552 99.676 446.6C100.444 448.605 100.828 450.76 100.828 453.064V469H92.188V463.176C92.188 461.555 92.188 459.891 92.188 458.184C92.2307 456.435 92.252 454.941 92.252 453.704C92.252 452.509 92.06 451.336 91.676 450.184C91.292 449.032 90.7587 448.029 90.076 447.176C89.3933 446.28 88.5827 445.576 87.644 445.064C86.748 444.509 85.788 444.232 84.764 444.232C83.7827 444.232 82.844 444.424 81.948 444.808C81.052 445.149 80.2627 445.683 79.58 446.408C78.8973 447.091 78.3427 447.965 77.916 449.032C77.532 450.099 77.34 451.357 77.34 452.808V469H68.444V422.28H77.34V439.688C78.4493 438.621 79.708 437.811 81.116 437.256C82.5667 436.659 84.2093 436.36 86.044 436.36ZM113.522 441.672C113.948 440.989 114.439 440.349 114.994 439.752C115.548 439.112 116.21 438.557 116.978 438.088C117.746 437.576 118.62 437.171 119.602 436.872C120.583 436.573 121.692 436.424 122.93 436.424C124.38 436.424 126.066 436.68 127.986 437.192L127.154 445.064C126.684 444.979 126.215 444.872 125.746 444.744C125.362 444.659 124.935 444.595 124.466 444.552C123.996 444.467 123.57 444.424 123.186 444.424C121.82 444.424 120.54 444.616 119.346 445C118.194 445.384 117.191 445.917 116.338 446.6C115.484 447.283 114.802 448.115 114.29 449.096C113.778 450.035 113.522 451.059 113.522 452.168V469H104.69V437.256H112.69L113.522 441.672ZM163.193 422.28V469H155.641L154.361 466.248C153.379 467.272 152.014 468.125 150.265 468.808C148.558 469.448 146.766 469.768 144.889 469.768C142.627 469.768 140.537 469.341 138.617 468.488C136.697 467.592 135.033 466.397 133.625 464.904C132.259 463.368 131.171 461.597 130.361 459.592C129.593 457.544 129.209 455.368 129.209 453.064C129.209 450.76 129.593 448.605 130.361 446.6C131.171 444.552 132.259 442.781 133.625 441.288C135.033 439.752 136.697 438.557 138.617 437.704C140.537 436.808 142.627 436.36 144.889 436.36C146.894 436.36 148.665 436.595 150.201 437.064C151.779 437.533 153.166 438.323 154.361 439.432V422.28H163.193ZM154.361 453.192C154.361 451.528 154.147 450.141 153.721 449.032C153.294 447.88 152.697 446.963 151.929 446.28C151.161 445.555 150.265 445.043 149.241 444.744C148.259 444.403 147.193 444.232 146.041 444.232C144.889 444.232 143.801 444.467 142.777 444.936C141.795 445.405 140.921 446.045 140.153 446.856C139.427 447.624 138.851 448.563 138.425 449.672C137.998 450.739 137.785 451.869 137.785 453.064C137.785 454.301 137.998 455.453 138.425 456.52C138.851 457.587 139.427 458.525 140.153 459.336C140.921 460.104 141.795 460.723 142.777 461.192C143.801 461.661 144.889 461.896 146.041 461.896C148.345 461.896 150.286 461.192 151.865 459.784C153.486 458.333 154.318 456.136 154.361 453.192ZM173.999 459.784C175.364 459.784 176.516 460.253 177.455 461.192C178.436 462.131 178.927 463.283 178.927 464.648C178.927 466.013 178.436 467.165 177.455 468.104C176.516 469.043 175.364 469.512 173.999 469.512C172.633 469.512 171.481 469.043 170.543 468.104C169.604 467.165 169.135 466.013 169.135 464.648C169.135 463.283 169.604 462.131 170.543 461.192C171.481 460.253 172.633 459.784 173.999 459.784Z" fill="white"/>
<path d="M50.36 544.912C51.288 544.912 52.144 544.688 52.928 544.24C53.728 543.792 54.4 543.2 54.944 542.464L56.696 544.144C55.928 545.056 54.992 545.8 53.888 546.376C52.8 546.952 51.624 547.24 50.36 547.24C49.208 547.24 48.12 547.008 47.096 546.544C46.072 546.08 45.184 545.456 44.432 544.672C43.68 543.872 43.08 542.944 42.632 541.888C42.2 540.816 41.984 539.688 41.984 538.504C41.984 537.304 42.2 536.176 42.632 535.12C43.08 534.064 43.68 533.144 44.432 532.36C45.184 531.56 46.072 530.928 47.096 530.464C48.12 530 49.208 529.768 50.36 529.768C51.432 529.768 52.44 529.984 53.384 530.416C54.344 530.832 55.2 531.384 55.952 532.072L54.464 533.968C53.936 533.408 53.32 532.952 52.616 532.6C51.912 532.232 51.16 532.048 50.36 532.048C49.544 532.048 48.776 532.224 48.056 532.576C47.352 532.912 46.736 533.376 46.208 533.968C45.68 534.56 45.256 535.248 44.936 536.032C44.632 536.8 44.48 537.624 44.48 538.504C44.48 539.384 44.632 540.216 44.936 541C45.256 541.768 45.68 542.448 46.208 543.04C46.736 543.616 47.352 544.072 48.056 544.408C48.776 544.744 49.544 544.912 50.36 544.912ZM72.6931 529.744C73.8451 529.744 74.9331 529.976 75.9571 530.44C76.9811 530.904 77.8691 531.536 78.6211 532.336C79.3891 533.12 79.9971 534.048 80.4451 535.12C80.8931 536.176 81.1171 537.296 81.1171 538.48C81.1171 539.68 80.8931 540.808 80.4451 541.864C79.9971 542.92 79.3891 543.848 78.6211 544.648C77.8531 545.432 76.9571 546.056 75.9331 546.52C74.9091 546.984 73.8211 547.216 72.6691 547.216C71.5171 547.216 70.4291 546.984 69.4051 546.52C68.3811 546.056 67.4851 545.432 66.7171 544.648C65.9651 543.848 65.3651 542.92 64.9171 541.864C64.4851 540.808 64.2691 539.68 64.2691 538.48C64.2691 537.296 64.4851 536.176 64.9171 535.12C65.3651 534.048 65.9731 533.12 66.7411 532.336C67.5091 531.536 68.4051 530.904 69.4291 530.44C70.4531 529.976 71.5411 529.744 72.6931 529.744ZM72.6931 544.84C73.5091 544.84 74.2691 544.68 74.9731 544.36C75.6931 544.024 76.3171 543.568 76.8451 542.992C77.3731 542.416 77.7891 541.744 78.0931 540.976C78.3971 540.192 78.5491 539.36 78.5491 538.48C78.5491 537.6 78.3971 536.776 78.0931 536.008C77.7891 535.24 77.3731 534.568 76.8451 533.992C76.3171 533.416 75.6931 532.968 74.9731 532.648C74.2691 532.312 73.5091 532.144 72.6931 532.144C71.8771 532.144 71.1091 532.312 70.3891 532.648C69.6851 532.968 69.0691 533.416 68.5411 533.992C68.0131 534.568 67.5891 535.24 67.2691 536.008C66.9651 536.776 66.8131 537.6 66.8131 538.48C66.8131 539.36 66.9651 540.192 67.2691 540.976C67.5891 541.744 68.0131 542.416 68.5411 542.992C69.0691 543.568 69.6851 544.024 70.3891 544.36C71.1091 544.68 71.8771 544.84 72.6931 544.84ZM100.668 529.984V532.24H91.6916V536.872H99.8276V539.2H91.6916V547H89.1956V529.984H100.668ZM119.629 529.984V532.24H110.653V536.872H118.789V539.2H110.653V547H108.157V529.984H119.629ZM137.509 529.984V532.24H129.613V536.872H136.645V539.2H129.613V544.672H137.509V547H129.613H128.365H127.117V529.984H137.509ZM156.681 529.984V532.24H148.785V536.872H155.817V539.2H148.785V544.672H156.681V547H148.785H147.537H146.289V529.984H156.681ZM185.735 544.912C186.663 544.912 187.519 544.688 188.303 544.24C189.103 543.792 189.775 543.2 190.319 542.464L192.071 544.144C191.303 545.056 190.367 545.8 189.263 546.376C188.175 546.952 186.999 547.24 185.735 547.24C184.583 547.24 183.495 547.008 182.471 546.544C181.447 546.08 180.559 545.456 179.807 544.672C179.055 543.872 178.455 542.944 178.007 541.888C177.575 540.816 177.359 539.688 177.359 538.504C177.359 537.304 177.575 536.176 178.007 535.12C178.455 534.064 179.055 533.144 179.807 532.36C180.559 531.56 181.447 530.928 182.471 530.464C183.495 530 184.583 529.768 185.735 529.768C186.807 529.768 187.815 529.984 188.759 530.416C189.719 530.832 190.575 531.384 191.327 532.072L189.839 533.968C189.311 533.408 188.695 532.952 187.991 532.6C187.287 532.232 186.535 532.048 185.735 532.048C184.919 532.048 184.151 532.224 183.431 532.576C182.727 532.912 182.111 533.376 181.583 533.968C181.055 534.56 180.631 535.248 180.311 536.032C180.007 536.8 179.855 537.624 179.855 538.504C179.855 539.384 180.007 540.216 180.311 541C180.631 541.768 181.055 542.448 181.583 543.04C182.111 543.616 182.727 544.072 183.431 544.408C184.151 544.744 184.919 544.912 185.735 544.912ZM208.068 529.744C209.22 529.744 210.308 529.976 211.332 530.44C212.356 530.904 213.244 531.536 213.996 532.336C214.764 533.12 215.372 534.048 215.82 535.12C216.268 536.176 216.492 537.296 216.492 538.48C216.492 539.68 216.268 540.808 215.82 541.864C215.372 542.92 214.764 543.848 213.996 544.648C213.228 545.432 212.332 546.056 211.308 546.52C210.284 546.984 209.196 547.216 208.044 547.216C206.892 547.216 205.804 546.984 204.78 546.52C203.756 546.056 202.86 545.432 202.092 544.648C201.34 543.848 200.74 542.92 200.292 541.864C199.86 540.808 199.644 539.68 199.644 538.48C199.644 537.296 199.86 536.176 200.292 535.12C200.74 534.048 201.348 533.12 202.116 532.336C202.884 531.536 203.78 530.904 204.804 530.44C205.828 529.976 206.916 529.744 208.068 529.744ZM208.068 544.84C208.884 544.84 209.644 544.68 210.348 544.36C211.068 544.024 211.692 543.568 212.22 542.992C212.748 542.416 213.164 541.744 213.468 540.976C213.772 540.192 213.924 539.36 213.924 538.48C213.924 537.6 213.772 536.776 213.468 536.008C213.164 535.24 212.748 534.568 212.22 533.992C211.692 533.416 211.068 532.968 210.348 532.648C209.644 532.312 208.884 532.144 208.068 532.144C207.252 532.144 206.484 532.312 205.764 532.648C205.06 532.968 204.444 533.416 203.916 533.992C203.388 534.568 202.964 535.24 202.644 536.008C202.34 536.776 202.188 537.6 202.188 538.48C202.188 539.36 202.34 540.192 202.644 540.976C202.964 541.744 203.388 542.416 203.916 542.992C204.444 543.568 205.06 544.024 205.764 544.36C206.484 544.68 207.252 544.84 208.068 544.84ZM239.067 529.984H241.587V547H239.091V533.944L234.123 540.784H232.179L227.187 533.944V547H224.667V529.984H227.187L233.139 538.168L239.067 529.984ZM257.239 529.984C257.911 529.984 258.543 530.112 259.135 530.368C259.727 530.624 260.239 530.968 260.671 531.4C261.119 531.832 261.471 532.344 261.727 532.936C261.983 533.512 262.111 534.136 262.111 534.808C262.111 535.48 261.983 536.112 261.727 536.704C261.471 537.296 261.119 537.808 260.671 538.24C260.239 538.672 259.727 539.016 259.135 539.272C258.543 539.512 257.911 539.632 257.239 539.632L252.823 539.656V547H250.327V529.984H257.239ZM257.239 537.304C257.575 537.304 257.887 537.24 258.175 537.112C258.479 536.968 258.743 536.784 258.967 536.56C259.191 536.336 259.367 536.072 259.495 535.768C259.623 535.448 259.687 535.112 259.687 534.76C259.687 534.408 259.623 534.08 259.495 533.776C259.367 533.472 259.191 533.208 258.967 532.984C258.743 532.744 258.479 532.56 258.175 532.432C257.887 532.288 257.575 532.216 257.239 532.216H252.823V537.304H257.239ZM272 547H269.264L276.344 529.984H279.104L286.184 547H283.472L281.24 541.672H274.208L272 547ZM275.168 539.368H280.28L277.736 533.224L275.168 539.368ZM308.586 529.984V547H306.042L296.538 533.944V547H293.922V529.984H296.562L306.066 543.112V529.984H308.586ZM322.185 539.032L316.185 529.984H319.185L323.433 536.368L327.681 529.984H330.705L324.705 539.032V547H322.185V539.032Z" fill="#1647FB"/>
</svg>
